<svg width="800" height="800" viewBox="0 0 800 800" fill="none" xmlns="http://www.w3.org/2000/svg">
<g clip-path="url(#clip0_11_7)">
<rect width="800" height="800" rx="10" fill="white"/>
<path d="M720 0H80C36 0 0 36 0 80V720C0 764 36 800 80 800H720C764 800 800 764 800 720V80C800 36 764 0 720 0ZM736 720C736 728.672 728.672 736 720 736H80C71.328 736 64 728.672 64 720V80C64 71.328 71.328 64 80 64H720C728.672 64 736 71.328 736 80V720Z" fill="black"/>
<path d="M395.728 549.088C380.752 549.088 368.048 554.24 357.728 564.24C347.408 574.272 342.24 586.864 342.24 601.648C342.24 618.208 347.584 631.248 358.24 640.512C368.912 649.808 381.424 654.304 395.712 654.304C409.6 654.304 421.808 649.552 432.432 640.208C442.928 630.896 448.24 617.888 448.24 601.648C448.24 586.864 443.12 574.272 432.992 564.24C423.024 554.256 410.512 549.088 395.728 549.088Z" fill="black"/>
<path d="M494.336 140.352C468.24 127.696 438.176 121.472 404.272 121.472C367.552 121.472 335.568 129.04 308.192 143.888C280.704 158.976 259.776 177.904 245.488 200.88C231.2 223.648 224 246.304 224 268.592C224 279.312 228.496 289.312 237.568 298.816C246.544 307.856 257.696 312.592 270.784 312.592C293.104 312.592 308.256 299.28 316.288 272.784C324.72 247.6 335.04 228.352 347.248 215.344C359.44 202.272 378.384 195.744 404.272 195.744C426.304 195.744 444.304 202.24 458.272 215.024C472.208 228.032 479.232 243.856 479.232 262.704C479.232 272.336 476.88 281.264 472.368 289.264C467.744 297.504 462.08 305.008 455.488 311.616C448.784 318.416 437.84 328.368 422.864 341.472C405.712 356.528 392.112 369.36 382.096 380.32C371.984 391.296 363.888 403.744 357.744 418.432C351.696 432.832 348.624 449.776 348.624 469.616C348.624 485.216 352.768 497.152 361.152 505.088C369.456 513.024 379.744 517.088 391.92 517.088C415.344 517.088 429.264 504.8 433.84 480.4C436.416 468.992 438.32 461.024 439.568 456.304C440.912 451.808 442.64 447.312 445.04 442.592C447.424 438.096 451.04 432.96 455.84 427.472C460.544 421.952 467.008 415.696 474.944 408.224C503.824 382.464 523.76 364.176 534.944 353.216C546.096 342.464 555.728 329.44 563.792 314.336C571.904 299.28 576 281.744 576 261.792C576 236.608 568.944 212.992 554.672 191.584C540.432 169.936 520.336 152.8 494.336 140.352Z" fill="black"/>
</g>
<defs>
<clipPath id="clip0_11_7">
<rect width="800" height="800" rx="10" fill="white"/>
</clipPath>
</defs>
</svg>
